<?xml version="1.0" encoding="UTF-8"?>
<!DOCTYPE svg  PUBLIC '-//W3C//DTD SVG 1.1//EN'  'http://www.w3.org/Graphics/SVG/1.1/DTD/svg11.dtd'>
<svg enable-background="new 0 0 51.65 16.4" version="1.1" viewBox="0 0 51.65 16.4" xml:space="preserve" xmlns="http://www.w3.org/2000/svg">
<linearGradient id="cg" x1="4.2002" x2="41.05" y1="5.7227" y2="5.7227" gradientUnits="userSpaceOnUse">
	<stop stop-color="#E0FF8A" offset="0"/>
	<stop stop-color="#898F40" offset="1"/>
</linearGradient>
<path d="m4.2 8.35c1.7-0.533 3.566-1.434 5.6-2.7 1.8-1.167 3.65-2.283 5.55-3.35 2.267-1.267 3.717-1.966 4.35-2.1 2.767-0.567 5.767 0.066 9 1.9 2.566 1.467 5.767 3.083 9.6 4.85 1.2 0.533 2.117 1 2.75 1.4-0.833 0.433-2.166 0.9-4 1.4-3.666 0.934-8 1.483-13 1.65-6.2 0.199-11.367-0.25-15.5-1.351-2.067-0.532-3.517-1.099-4.35-1.699z" clip-rule="evenodd" fill="url(#cg)" fill-rule="evenodd"/>
<path d="m37.25 7.25c0.967 0.6 1.033 1.017 0.2 1.25-0.9 0.233-1.434 0.117-1.601-0.35-0.166-0.4-0.083-0.717 0.25-0.95 0.335-0.233 0.717-0.217 1.151 0.05z" clip-rule="evenodd" fill="#888C4B" fill-rule="evenodd"/>
<path d="m34.3 5.65c0.8 0.533 0.783 0.9-0.05 1.1-0.934 0.233-1.417 0.133-1.45-0.3-0.066-0.4 0.066-0.7 0.4-0.9 0.333-0.2 0.7-0.167 1.1 0.1z" clip-rule="evenodd" fill="#888C4B" fill-rule="evenodd"/>
<path d="m34.4 7.65c0.566 0.567 0.416 0.95-0.45 1.15-0.9 0.233-1.367 0.067-1.4-0.5-0.033-0.533 0.167-0.867 0.601-1 0.432-0.167 0.849-0.05 1.249 0.35z" clip-rule="evenodd" fill="#888C4B" fill-rule="evenodd"/>
<path d="m31.2 7.35c0.5 0.566 0.45 0.967-0.15 1.2s-1.017 0.167-1.25-0.2c-0.2-0.3-0.083-0.617 0.351-0.95 0.399-0.367 0.749-0.383 1.049-0.05z" clip-rule="evenodd" fill="#888C4B" fill-rule="evenodd"/>
<path d="m29.25 3.55c0.7 0.167 1.1 0.483 1.2 0.95 0.133 0.433-0.05 0.65-0.55 0.65-0.434 0-0.75-0.283-0.95-0.85s-0.1-0.817 0.3-0.75z" clip-rule="evenodd" fill="#888C4B" fill-rule="evenodd"/>
<path d="m26.45 2.05c0.633 0.2 0.916 0.567 0.85 1.1s-0.267 0.7-0.6 0.5c-0.233-0.167-0.384-0.5-0.45-1-0.066-0.467 0-0.667 0.2-0.6z" clip-rule="evenodd" fill="#888C4B" fill-rule="evenodd"/>
<path d="m28.6 5.4c0.767 0.667 0.867 1.167 0.301 1.5-0.634 0.367-1.067 0.3-1.301-0.2-0.2-0.433-0.15-0.817 0.15-1.15s0.583-0.383 0.85-0.15z" clip-rule="evenodd" fill="#888C4B" fill-rule="evenodd"/>
<path d="m29.1 9.1c0.667 0.367 0.767 0.717 0.301 1.051-0.467 0.333-0.884 0.3-1.25-0.101-0.301-0.333-0.318-0.633-0.051-0.9 0.3-0.233 0.633-0.25 1-0.05z" clip-rule="evenodd" fill="#888C4B" fill-rule="evenodd"/>
<path d="m32.3 9.1c0.7 0.1 0.816 0.3 0.35 0.6-0.5 0.3-0.85 0.383-1.05 0.25-0.2-0.1-0.234-0.283-0.1-0.55s0.4-0.367 0.8-0.3z" clip-rule="evenodd" fill="#888C4B" fill-rule="evenodd"/>
<linearGradient id="cr" x1="2.5874" x2="5.7124" y1="8.8374" y2="8.8374" gradientUnits="userSpaceOnUse">
	<stop stop-color="#E0FF8A" offset="0"/>
	<stop stop-color="#898F40" offset="1"/>
</linearGradient>
<path d="m5.2 8.45c0.2 0.367 0.383 0.7 0.55 1 0 0.1-0.25 0.166-0.75 0.2-0.667 0.066-1.267 0-1.8-0.2-0.6-0.233-0.75-0.534-0.45-0.9s0.767-0.55 1.4-0.55c0.567 0.033 0.917 0.183 1.05 0.45z" clip-rule="evenodd" fill="url(#cr)" fill-rule="evenodd"/>
<linearGradient id="bg" x1=".0249" x2="2.5749" y1="9.6406" y2="9.6406" gradientUnits="userSpaceOnUse">
	<stop stop-color="#E0FF8A" offset="0"/>
	<stop stop-color="#898F40" offset="1"/>
</linearGradient>
<path d="m2.4 9.35c0.433 0.3 0.167 0.567-0.8 0.8-1 0.233-1.533 0.166-1.6-0.2-0.033-0.4 0.233-0.683 0.8-0.85 0.567-0.2 1.1-0.117 1.6 0.25z" clip-rule="evenodd" fill="url(#bg)" fill-rule="evenodd"/>
<linearGradient id="br" x1="9.8374" x2="12.562" y1="10.616" y2="10.616" gradientUnits="userSpaceOnUse">
	<stop stop-color="#E0FF8A" offset="0"/>
	<stop stop-color="#898F40" offset="1"/>
</linearGradient>
<path d="m11.15 9.75c1.367 0.1 1.783 0.45 1.25 1.05-0.533 0.634-1.167 0.834-1.9 0.601-0.6-0.2-0.783-0.534-0.55-1 0.233-0.501 0.633-0.717 1.2-0.651z" clip-rule="evenodd" fill="url(#br)" fill-rule="evenodd"/>
<linearGradient id="bs" x1="6.75" x2="8.25" y1="11.148" y2="11.148" gradientUnits="userSpaceOnUse">
	<stop stop-color="#E0FF8A" offset="0"/>
	<stop stop-color="#898F40" offset="1"/>
</linearGradient>
<path d="m7.55 10.6c0.7-0.133 0.9 0.067 0.6 0.601-0.3 0.5-0.633 0.649-1 0.45-0.367-0.2-0.5-0.4-0.4-0.601 0.067-0.234 0.333-0.383 0.8-0.45z" clip-rule="evenodd" fill="url(#bs)" fill-rule="evenodd"/>
<linearGradient id="bt" x1="16.7" x2="21.3" y1="11.625" y2="11.625" gradientUnits="userSpaceOnUse">
	<stop stop-color="#E0FF8A" offset="0"/>
	<stop stop-color="#898F40" offset="1"/>
</linearGradient>
<path d="m19.3 10.35c0.8 0 1.4 0.267 1.8 0.801 0.4 0.533 0.316 0.933-0.25 1.199-0.633 0.334-1.333 0.517-2.1 0.551-0.867 0-1.483-0.233-1.85-0.7s-0.267-0.9 0.3-1.3c0.533-0.368 1.233-0.551 2.1-0.551z" clip-rule="evenodd" fill="url(#bt)" fill-rule="evenodd"/>
<linearGradient id="bu" x1="19.725" x2="23.975" y1="12.69" y2="12.69" gradientUnits="userSpaceOnUse">
	<stop stop-color="#E0FF8A" offset="0"/>
	<stop stop-color="#898F40" offset="1"/>
</linearGradient>
<path d="m23.75 12.35c0.3 0.4 0.317 0.75 0.05 1.051-0.333 0.366-1.083 0.5-2.25 0.399-1.167-0.1-1.783-0.3-1.85-0.6-0.067-0.167 0.15-0.517 0.65-1.05 0.4-0.434 0.967-0.634 1.7-0.601 0.7 0.067 1.267 0.335 1.7 0.801z" clip-rule="evenodd" fill="url(#bu)" fill-rule="evenodd"/>
<linearGradient id="bv" x1="30.112" x2="35.187" y1="11.298" y2="11.298" gradientUnits="userSpaceOnUse">
	<stop stop-color="#E0FF8A" offset="0"/>
	<stop stop-color="#898F40" offset="1"/>
</linearGradient>
<path d="m32.15 12.85c-0.534 0-1.017-0.1-1.45-0.3-0.467-0.233-0.65-0.533-0.55-0.899 0.166-0.5 0.433-0.934 0.8-1.301 0.467-0.433 1-0.633 1.6-0.6 0.634 0.033 1.25 0.35 1.851 0.95 0.6 0.566 0.866 1.05 0.8 1.45-0.101 0.466-1.118 0.7-3.051 0.7z" clip-rule="evenodd" fill="url(#bv)" fill-rule="evenodd"/>
<linearGradient id="ct" x1="29.138" x2="32.659" y1="13.023" y2="13.023" gradientUnits="userSpaceOnUse">
	<stop stop-color="#E0FF8A" offset="0"/>
	<stop stop-color="#898F40" offset="1"/>
</linearGradient>
<path d="m32.6 13.25c-0.1 0.434-0.466 0.684-1.1 0.75-0.566 0.066-1.184-0.017-1.85-0.25-0.534-0.2-0.667-0.483-0.4-0.85 0.233-0.4 0.616-0.65 1.15-0.75 0.566-0.167 1.083-0.167 1.55 0 0.567 0.2 0.783 0.567 0.65 1.1z" clip-rule="evenodd" fill="url(#ct)" fill-rule="evenodd"/>
<linearGradient id="bw" x1="26.2" x2="28.5" y1="14.354" y2="14.354" gradientUnits="userSpaceOnUse">
	<stop stop-color="#E0FF8A" offset="0"/>
	<stop stop-color="#898F40" offset="1"/>
</linearGradient>
<path d="m28.15 14c0.5 0.267 0.5 0.5 0 0.7-0.467 0.2-1 0.25-1.601 0.149-0.566-0.066-0.566-0.3 0-0.699 0.534-0.4 1.067-0.45 1.601-0.15z" clip-rule="evenodd" fill="url(#bw)" fill-rule="evenodd"/>
<linearGradient id="bx" x1="15.237" x2="17.762" y1="13.762" y2="13.762" gradientUnits="userSpaceOnUse">
	<stop stop-color="#E0FF8A" offset="0"/>
	<stop stop-color="#898F40" offset="1"/>
</linearGradient>
<path d="m17.4 13.25c0.567 0.2 0.567 0.483 0 0.85-0.6 0.367-1.183 0.4-1.75 0.101-0.566-0.3-0.566-0.584 0-0.851 0.567-0.267 1.15-0.3 1.75-0.1z" clip-rule="evenodd" fill="url(#bx)" fill-rule="evenodd"/>
<linearGradient id="by" x1="8.1626" x2="9.5376" y1="12.518" y2="12.518" gradientUnits="userSpaceOnUse">
	<stop stop-color="#E0FF8A" offset="0"/>
	<stop stop-color="#898F40" offset="1"/>
</linearGradient>
<path d="m8.65 12.05c0.567 0.066 0.867 0.25 0.9 0.55 0.033 0.266-0.183 0.4-0.65 0.4-0.4 0-0.633-0.167-0.7-0.5-0.067-0.366 0.083-0.517 0.45-0.45z" clip-rule="evenodd" fill="url(#by)" fill-rule="evenodd"/>
<linearGradient id="bz" x1="26.737" x2="29.262" y1="11.001" y2="11.001" gradientUnits="userSpaceOnUse">
	<stop stop-color="#E0FF8A" offset="0"/>
	<stop stop-color="#898F40" offset="1"/>
</linearGradient>
<path d="m28.15 10.05c1.166 0.167 1.466 0.55 0.899 1.15-0.533 0.566-1.149 0.816-1.85 0.75-0.566-0.033-0.65-0.367-0.25-1 0.367-0.667 0.768-0.967 1.201-0.9z" clip-rule="evenodd" fill="url(#bz)" fill-rule="evenodd"/>
<linearGradient id="ca" x1="34.287" x2="39.112" y1="11.918" y2="11.918" gradientUnits="userSpaceOnUse">
	<stop stop-color="#E0FF8A" offset="0"/>
	<stop stop-color="#898F40" offset="1"/>
</linearGradient>
<path d="m37.35 10.45c0.534 0.166 0.983 0.45 1.351 0.85 0.333 0.434 0.467 0.867 0.399 1.3-0.066 0.4-0.399 0.667-1 0.801-0.399 0.066-1.1 0.066-2.1 0-0.833-0.034-1.35-0.117-1.55-0.25-0.167-0.101-0.184-0.384-0.05-0.851 0.133-0.5 0.5-0.967 1.1-1.399 0.634-0.467 1.25-0.618 1.85-0.451z" clip-rule="evenodd" fill="url(#ca)" fill-rule="evenodd"/>
<linearGradient id="cb" x1="39.95" x2="42.15" y1="12.69" y2="12.69" gradientUnits="userSpaceOnUse">
	<stop stop-color="#E0FF8A" offset="0"/>
	<stop stop-color="#898F40" offset="1"/>
</linearGradient>
<path d="m41.6 12.15c0.667 0.233 0.817 0.517 0.45 0.85-0.366 0.333-0.883 0.4-1.55 0.2-0.634-0.2-0.717-0.467-0.25-0.8 0.467-0.334 0.917-0.417 1.35-0.25z" clip-rule="evenodd" fill="url(#cb)" fill-rule="evenodd"/>
<linearGradient id="cc" x1="37.438" x2="40.262" y1="9.2891" y2="9.2891" gradientUnits="userSpaceOnUse">
	<stop stop-color="#E0FF8A" offset="0"/>
	<stop stop-color="#898F40" offset="1"/>
</linearGradient>
<path d="m39.6 8.45c0.434 0.066 0.667 0.316 0.7 0.75 0.033 0.399-0.149 0.684-0.55 0.85-0.366 0.167-0.833 0.184-1.4 0.05-0.6-0.133-0.899-0.316-0.899-0.55 0-0.333 0.149-0.617 0.45-0.85 0.399-0.3 0.965-0.383 1.699-0.25z" clip-rule="evenodd" fill="url(#cc)" fill-rule="evenodd"/>
<linearGradient id="cd" x1="41.3" x2="44.6" y1="10.852" y2="10.852" gradientUnits="userSpaceOnUse">
	<stop stop-color="#E0FF8A" offset="0"/>
	<stop stop-color="#898F40" offset="1"/>
</linearGradient>
<path d="m43.2 9.9c1.399 0.233 1.767 0.783 1.1 1.649-0.166 0.267-0.566 0.351-1.2 0.25-0.666-0.066-1.199-0.283-1.6-0.649-0.366-0.334-0.316-0.65 0.15-0.95s0.984-0.4 1.55-0.3z" clip-rule="evenodd" fill="url(#cd)" fill-rule="evenodd"/>
<linearGradient id="ce" x1="40.463" x2="42.738" y1="8.1543" y2="8.1543" gradientUnits="userSpaceOnUse">
	<stop stop-color="#E0FF8A" offset="0"/>
	<stop stop-color="#898F40" offset="1"/>
</linearGradient>
<path d="m41.3 7.35c0.601 0 1.033 0.2 1.3 0.6 0.233 0.333 0.25 0.6 0.051 0.8-0.167 0.167-0.384 0.233-0.65 0.2-0.134 0-0.5-0.067-1.1-0.2-0.434-0.067-0.535-0.317-0.301-0.75 0.2-0.433 0.433-0.65 0.7-0.65z" clip-rule="evenodd" fill="url(#ce)" fill-rule="evenodd"/>
<linearGradient id="cf" x1="43.725" x2="45.475" y1="8.8867" y2="8.8867" gradientUnits="userSpaceOnUse">
	<stop stop-color="#E0FF8A" offset="0"/>
	<stop stop-color="#898F40" offset="1"/>
</linearGradient>
<path d="m44.8 8.2c0.733 0.233 0.884 0.566 0.45 1s-0.85 0.533-1.25 0.3c-0.333-0.2-0.384-0.5-0.15-0.9s0.55-0.533 0.95-0.4z" clip-rule="evenodd" fill="url(#cf)" fill-rule="evenodd"/>
<linearGradient id="ch" x1="1.8623" x2="3.8373" y1="10.728" y2="10.728" gradientUnits="userSpaceOnUse">
	<stop stop-color="#E0FF8A" offset="0"/>
	<stop stop-color="#898F40" offset="1"/>
</linearGradient>
<path d="m3.45 10.2c0.433 0.234 0.55 0.517 0.35 0.85-0.233 0.367-0.7 0.4-1.4 0.101-0.667-0.267-0.75-0.534-0.25-0.801 0.533-0.267 0.967-0.317 1.3-0.15z" clip-rule="evenodd" fill="url(#ch)" fill-rule="evenodd"/>
<linearGradient id="ci" x1="7.2998" x2="8.9998" y1="7.9326" y2="7.9326" gradientUnits="userSpaceOnUse">
	<stop stop-color="#F7FFA1" offset="0"/>
	<stop stop-color="#F8FFB3" offset="1"/>
</linearGradient>
<path d="m8.35 7.4c0.7 0 0.883 0.2 0.55 0.6-0.367 0.367-0.783 0.517-1.25 0.45-0.4-0.067-0.45-0.267-0.15-0.6 0.3-0.3 0.583-0.45 0.85-0.45z" clip-rule="evenodd" fill="url(#ci)" fill-rule="evenodd"/>
<linearGradient id="cj" x1="10.163" x2="11.938" y1="6.5029" y2="6.5029" gradientUnits="userSpaceOnUse">
	<stop stop-color="#F7FFA1" offset="0"/>
	<stop stop-color="#F8FFB3" offset="1"/>
</linearGradient>
<path d="m11 5.95c0.767-0.133 1.067 0.033 0.9 0.5-0.167 0.433-0.55 0.65-1.15 0.65-0.5 0-0.683-0.184-0.55-0.55 0.133-0.333 0.4-0.533 0.8-0.6z" clip-rule="evenodd" fill="url(#cj)" fill-rule="evenodd"/>
<linearGradient id="ck" x1="9.8125" x2="11.588" y1="8.5313" y2="8.5313" gradientUnits="userSpaceOnUse">
	<stop stop-color="#F7FFA1" offset="0"/>
	<stop stop-color="#F8FFB3" offset="1"/>
</linearGradient>
<path d="m11.05 7.65c0.534 0.067 0.7 0.434 0.5 1.1-0.167 0.667-0.566 0.833-1.2 0.5-0.567-0.3-0.683-0.667-0.35-1.1 0.3-0.367 0.65-0.533 1.05-0.5z" clip-rule="evenodd" fill="url(#ck)" fill-rule="evenodd"/>
<linearGradient id="cl" x1="13.25" x2="14.35" y1="8.4307" y2="8.4307" gradientUnits="userSpaceOnUse">
	<stop stop-color="#F7FFA1" offset="0"/>
	<stop stop-color="#F8FFB3" offset="1"/>
</linearGradient>
<path d="m14.1 7.75c0.3 0.3 0.316 0.667 0.05 1.1-0.267 0.4-0.517 0.5-0.75 0.3-0.267-0.2-0.267-0.55 0-1.05 0.233-0.5 0.467-0.617 0.7-0.35z" clip-rule="evenodd" fill="url(#cl)" fill-rule="evenodd"/>
<linearGradient id="cm" x1="15.45" x2="16.95" y1="9.334" y2="9.334" gradientUnits="userSpaceOnUse">
	<stop stop-color="#F7FFA1" offset="0"/>
	<stop stop-color="#F8FFB3" offset="1"/>
</linearGradient>
<path d="m16.7 8.75c0.333 0.133 0.4 0.4 0.2 0.8-0.233 0.434-0.566 0.55-1 0.351-0.5-0.2-0.6-0.483-0.3-0.851 0.3-0.367 0.667-0.467 1.1-0.3z" clip-rule="evenodd" fill="url(#cm)" fill-rule="evenodd"/>
<linearGradient id="cn" x1="17.002" x2="18.902" y1="7.5635" y2="7.5635" gradientUnits="userSpaceOnUse">
	<stop stop-color="#F7FFA1" offset="0"/>
	<stop stop-color="#F8FFB3" offset="1"/>
</linearGradient>
<path d="m18.35 6.85c0.6 0.267 0.767 0.617 0.5 1.05-0.3 0.467-0.75 0.567-1.35 0.3-0.567-0.2-0.65-0.517-0.25-0.95 0.367-0.433 0.733-0.567 1.1-0.4z" clip-rule="evenodd" fill="url(#cn)" fill-rule="evenodd"/>
<linearGradient id="co" x1="14.65" x2="16.25" y1="7.1455" y2="7.1455" gradientUnits="userSpaceOnUse">
	<stop stop-color="#F7FFA1" offset="0"/>
	<stop stop-color="#F8FFB3" offset="1"/>
</linearGradient>
<path d="m15.5 6.3c0.8 0.067 1 0.4 0.6 1-0.434 0.633-0.833 0.833-1.2 0.6-0.3-0.2-0.35-0.517-0.15-0.95 0.2-0.467 0.45-0.683 0.75-0.65z" clip-rule="evenodd" fill="url(#co)" fill-rule="evenodd"/>
<linearGradient id="cp" x1="12.663" x2="14.138" y1="6.02" y2="6.02" gradientUnits="userSpaceOnUse">
	<stop stop-color="#F7FFA1" offset="0"/>
	<stop stop-color="#F8FFB3" offset="1"/>
</linearGradient>
<path d="m13.25 5.3c0.8 0 1.067 0.267 0.8 0.8-0.3 0.533-0.65 0.733-1.05 0.6-0.333-0.1-0.433-0.367-0.3-0.8 0.1-0.4 0.283-0.6 0.55-0.6z" clip-rule="evenodd" fill="url(#cp)" fill-rule="evenodd"/>
<linearGradient id="cq" x1="13.913" x2="14.888" y1="4.1724" y2="4.1724" gradientUnits="userSpaceOnUse">
	<stop stop-color="#F7FFA1" offset="0"/>
	<stop stop-color="#F8FFB3" offset="1"/>
</linearGradient>
<path d="m14.45 3.8c0.4-0.133 0.533-0.05 0.4 0.25-0.1 0.3-0.317 0.483-0.65 0.55-0.3 0.033-0.383-0.067-0.25-0.3 0.1-0.267 0.267-0.433 0.5-0.5z" clip-rule="evenodd" fill="url(#cq)" fill-rule="evenodd"/>
<linearGradient id="cs" x1="16.175" x2="17.625" y1="3.4258" y2="3.4258" gradientUnits="userSpaceOnUse">
	<stop stop-color="#F7FFA1" offset="0"/>
	<stop stop-color="#F8FFB3" offset="1"/>
</linearGradient>
<path d="m17.25 2.9c0.467 0.133 0.533 0.367 0.2 0.7-0.3 0.3-0.633 0.417-1 0.35s-0.4-0.284-0.1-0.65c0.267-0.333 0.567-0.467 0.9-0.4z" clip-rule="evenodd" fill="url(#cs)" fill-rule="evenodd"/>
<linearGradient id="ax" x1="18.138" x2="19.263" y1="1.9346" y2="1.9346" gradientUnits="userSpaceOnUse">
	<stop stop-color="#F7FFA1" offset="0"/>
	<stop stop-color="#F8FFB3" offset="1"/>
</linearGradient>
<path d="m18.75 1.55c0.5 0.034 0.667 0.184 0.5 0.45s-0.433 0.367-0.8 0.3c-0.3-0.1-0.367-0.25-0.2-0.45 0.133-0.2 0.3-0.3 0.5-0.3z" clip-rule="evenodd" fill="url(#ax)" fill-rule="evenodd"/>
<linearGradient id="ay" x1="17.825" x2="19.575" y1="3.9365" y2="3.9365" gradientUnits="userSpaceOnUse">
	<stop stop-color="#F7FFA1" offset="0"/>
	<stop stop-color="#F8FFB3" offset="1"/>
</linearGradient>
<path d="m19 3.25c0.733 0.133 0.817 0.433 0.25 0.9-0.567 0.5-1 0.617-1.3 0.35-0.267-0.2-0.233-0.483 0.1-0.85 0.3-0.333 0.617-0.467 0.95-0.4z" clip-rule="evenodd" fill="url(#ay)" fill-rule="evenodd"/>
<linearGradient id="az" x1="15.4" x2="16.5" y1="5.082" y2="5.082" gradientUnits="userSpaceOnUse">
	<stop stop-color="#F7FFA1" offset="0"/>
	<stop stop-color="#F8FFB3" offset="1"/>
</linearGradient>
<path d="m16.45 4.75c0.133 0.367 0.066 0.633-0.2 0.8-0.267 0.133-0.517 0.117-0.75-0.05-0.2-0.167-0.133-0.417 0.2-0.75 0.367-0.3 0.617-0.3 0.75 0z" clip-rule="evenodd" fill="url(#az)" fill-rule="evenodd"/>
<linearGradient id="ba" x1="17.487" x2="18.912" y1="5.6045" y2="5.6045" gradientUnits="userSpaceOnUse">
	<stop stop-color="#F7FFA1" offset="0"/>
	<stop stop-color="#F8FFB3" offset="1"/>
</linearGradient>
<path d="m18.45 5.1c0.333 0 0.466 0.267 0.4 0.8-0.033 0.167-0.217 0.233-0.55 0.2s-0.583-0.133-0.75-0.3-0.15-0.316 0.05-0.45c0.2-0.167 0.483-0.25 0.85-0.25z" clip-rule="evenodd" fill="url(#ba)" fill-rule="evenodd"/>
<linearGradient id="bb" x1="20.225" x2="21.575" y1="5.7041" y2="5.7041" gradientUnits="userSpaceOnUse">
	<stop stop-color="#F7FFA1" offset="0"/>
	<stop stop-color="#F8FFB3" offset="1"/>
</linearGradient>
<path d="m20.95 5c0.667 0.1 0.833 0.383 0.5 0.85-0.367 0.5-0.7 0.667-1 0.5-0.267-0.1-0.317-0.367-0.15-0.8 0.133-0.4 0.35-0.583 0.65-0.55z" clip-rule="evenodd" fill="url(#bb)" fill-rule="evenodd"/>
<linearGradient id="bc" x1="20.15" x2="21.45" y1="8.9902" y2="8.9902" gradientUnits="userSpaceOnUse">
	<stop stop-color="#F7FFA1" offset="0"/>
	<stop stop-color="#F8FFB3" offset="1"/>
</linearGradient>
<path d="m21 8.3c0.533 0.067 0.65 0.35 0.35 0.851-0.3 0.466-0.6 0.633-0.9 0.5-0.3-0.134-0.383-0.4-0.25-0.8 0.167-0.434 0.433-0.618 0.8-0.551z" clip-rule="evenodd" fill="url(#bc)" fill-rule="evenodd"/>
<linearGradient id="bd" x1="22.75" x2="24.55" y1="9.4717" y2="9.4717" gradientUnits="userSpaceOnUse">
	<stop stop-color="#F7FFA1" offset="0"/>
	<stop stop-color="#F8FFB3" offset="1"/>
</linearGradient>
<path d="m23.9 8.85c0.833 0.333 0.9 0.667 0.2 1-0.733 0.334-1.184 0.4-1.35 0.2-0.1-0.166-0.033-0.434 0.2-0.8 0.267-0.433 0.583-0.567 0.95-0.4z" clip-rule="evenodd" fill="url(#bd)" fill-rule="evenodd"/>
<linearGradient id="be" x1="10.212" x2="11.187" y1="10.398" y2="10.398" gradientUnits="userSpaceOnUse">
	<stop stop-color="#F7FFA1" offset="0"/>
	<stop stop-color="#F8FFB3" offset="1"/>
</linearGradient>
<path d="m10.85 9.95c0.367 0.1 0.467 0.283 0.3 0.55-0.167 0.233-0.4 0.35-0.7 0.35-0.267 0-0.317-0.149-0.15-0.449 0.167-0.335 0.35-0.484 0.55-0.451z" clip-rule="evenodd" fill="url(#be)" fill-rule="evenodd"/>
<linearGradient id="bf" x1="17.425" x2="18.975" y1="11.412" y2="11.412" gradientUnits="userSpaceOnUse">
	<stop stop-color="#F7FFA1" offset="0"/>
	<stop stop-color="#F8FFB3" offset="1"/>
</linearGradient>
<path d="m18.5 10.85c0.5 0.134 0.6 0.4 0.3 0.801-0.333 0.366-0.7 0.466-1.1 0.3-0.4-0.134-0.467-0.384-0.2-0.75 0.3-0.368 0.633-0.484 1-0.351z" clip-rule="evenodd" fill="url(#bf)" fill-rule="evenodd"/>
<linearGradient id="bh" x1="20.062" x2="21.638" y1="12.721" y2="12.721" gradientUnits="userSpaceOnUse">
	<stop stop-color="#F7FFA1" offset="0"/>
	<stop stop-color="#F8FFB3" offset="1"/>
</linearGradient>
<path d="m21.35 12.05c0.433 0.066 0.45 0.334 0.05 0.8-0.367 0.467-0.733 0.634-1.1 0.5-0.367-0.133-0.367-0.383 0-0.75 0.367-0.4 0.717-0.583 1.05-0.55z" clip-rule="evenodd" fill="url(#bh)" fill-rule="evenodd"/>
<linearGradient id="bi" x1="15.763" x2="16.538" y1="13.65" y2="13.65" gradientUnits="userSpaceOnUse">
	<stop stop-color="#F7FFA1" offset="0"/>
	<stop stop-color="#F8FFB3" offset="1"/>
</linearGradient>
<path d="m16.5 13.4c0.133 0.133 0.117 0.283-0.05 0.449-0.167 0.167-0.35 0.184-0.55 0.051-0.2-0.134-0.183-0.284 0.05-0.45 0.233-0.167 0.417-0.183 0.55-0.05z" clip-rule="evenodd" fill="url(#bi)" fill-rule="evenodd"/>
<linearGradient id="bj" x1="34.85" x2="36.55" y1="12.053" y2="12.053" gradientUnits="userSpaceOnUse">
	<stop stop-color="#F7FFA1" offset="0"/>
	<stop stop-color="#F8FFB3" offset="1"/>
</linearGradient>
<path d="m36.25 11.15c0.467 0.267 0.434 0.683-0.1 1.25-0.5 0.533-0.9 0.716-1.2 0.55-0.267-0.2-0.2-0.584 0.2-1.15 0.367-0.6 0.734-0.817 1.1-0.65z" clip-rule="evenodd" fill="url(#bj)" fill-rule="evenodd"/>
<linearGradient id="bk" x1="30.688" x2="32.312" y1="10.894" y2="10.894" gradientUnits="userSpaceOnUse">
	<stop stop-color="#F7FFA1" offset="0"/>
	<stop stop-color="#F8FFB3" offset="1"/>
</linearGradient>
<path d="m32.2 10.2c0.233 0.133 0.184 0.45-0.15 0.95-0.366 0.466-0.733 0.633-1.1 0.5-0.4-0.167-0.4-0.5 0-1 0.434-0.534 0.85-0.683 1.25-0.45z" clip-rule="evenodd" fill="url(#bk)" fill-rule="evenodd"/>
<linearGradient id="bl" x1="29.662" x2="30.937" y1="12.809" y2="12.809" gradientUnits="userSpaceOnUse">
	<stop stop-color="#F7FFA1" offset="0"/>
	<stop stop-color="#F8FFB3" offset="1"/>
</linearGradient>
<path d="m30.85 12.35c0.2 0.101 0.117 0.317-0.25 0.65-0.366 0.333-0.649 0.4-0.85 0.2s-0.134-0.417 0.2-0.65c0.333-0.234 0.633-0.3 0.9-0.2z" clip-rule="evenodd" fill="url(#bl)" fill-rule="evenodd"/>
<linearGradient id="bm" x1="27.088" x2="28.113" y1="10.959" y2="10.959" gradientUnits="userSpaceOnUse">
	<stop stop-color="#F7FFA1" offset="0"/>
	<stop stop-color="#F8FFB3" offset="1"/>
</linearGradient>
<path d="m27.9 10.55c0.3 0.066 0.316 0.25 0.05 0.55-0.3 0.267-0.55 0.351-0.75 0.25-0.2-0.1-0.184-0.283 0.05-0.55 0.267-0.234 0.483-0.317 0.65-0.25z" clip-rule="evenodd" fill="url(#bm)" fill-rule="evenodd"/>
<linearGradient id="bn" x1="37.987" x2="39.212" y1="9.207" y2="9.207" gradientUnits="userSpaceOnUse">
	<stop stop-color="#F7FFA1" offset="0"/>
	<stop stop-color="#F8FFB3" offset="1"/>
</linearGradient>
<path d="m38.65 8.75c0.533-0.033 0.699 0.133 0.5 0.5-0.2 0.333-0.483 0.467-0.851 0.4-0.333-0.067-0.434-0.233-0.3-0.5 0.101-0.233 0.317-0.367 0.651-0.4z" clip-rule="evenodd" fill="url(#bn)" fill-rule="evenodd"/>
<linearGradient id="bo" x1="42.013" x2="43.688" y1="10.467" y2="10.467" gradientUnits="userSpaceOnUse">
	<stop stop-color="#F7FFA1" offset="0"/>
	<stop stop-color="#F8FFB3" offset="1"/>
</linearGradient>
<path d="m43.2 9.9c0.6 0.066 0.666 0.3 0.2 0.699-0.467 0.4-0.851 0.534-1.15 0.4s-0.35-0.366-0.15-0.7c0.233-0.332 0.6-0.466 1.1-0.399z" clip-rule="evenodd" fill="url(#bo)" fill-rule="evenodd"/>
<linearGradient id="bp" x1="40.787" x2="41.912" y1="8.0391" y2="8.0391" gradientUnits="userSpaceOnUse">
	<stop stop-color="#F7FFA1" offset="0"/>
	<stop stop-color="#F8FFB3" offset="1"/>
</linearGradient>
<path d="m41.6 7.65c0.334 0.133 0.417 0.333 0.25 0.6-0.199 0.267-0.466 0.3-0.8 0.1-0.333-0.167-0.383-0.35-0.15-0.55 0.2-0.2 0.433-0.25 0.7-0.15z" clip-rule="evenodd" fill="url(#bp)" fill-rule="evenodd"/>
<linearGradient id="bq" x1="3.5249" x2="4.4749" y1="8.6719" y2="8.6719" gradientUnits="userSpaceOnUse">
	<stop stop-color="#F7FFA1" offset="0"/>
	<stop stop-color="#F8FFB3" offset="1"/>
</linearGradient>
<path d="m4.2 8.35c0.233 0.133 0.316 0.3 0.25 0.5-0.1 0.233-0.3 0.284-0.6 0.15-0.333-0.133-0.45-0.317-0.35-0.55 0.133-0.2 0.367-0.233 0.7-0.1z" clip-rule="evenodd" fill="url(#bq)" fill-rule="evenodd"/>
</svg>
